<?xml version="1.0" encoding="utf-8"?>
<!-- Generator: Adobe Illustrator 23.0.3, SVG Export Plug-In . SVG Version: 6.00 Build 0)  -->
<svg version="1.1" id="Layer_1" xmlns="http://www.w3.org/2000/svg" xmlns:xlink="http://www.w3.org/1999/xlink" x="0px" y="0px"
	 viewBox="0 0 2000 1200" style="enable-background:new 0 0 2000 1200;" xml:space="preserve">
<style type="text/css">
	.st0{fill:#172C55;}
	.st1{opacity:0.24;fill:#606060;}
	.st2{fill:url(#SVGID_1_);}
	.st3{fill:#00E261;}
	.st4{fill-rule:evenodd;clip-rule:evenodd;fill:#00E261;}
	.st5{fill:#FFFFFF;}
	.st6{fill:#272B33;stroke:#1D1D1B;stroke-width:0.3398;stroke-miterlimit:10;}
	.st7{fill:#0093D5;}
	.st8{fill:#606060;}
	.st9{fill:#21B466;}
</style>
<g>
	<path class="st3" d="M461.29,434.29c-10.46,20.38-33.95,30.33-55.92,23.82c-7.37-2.18-15.05-3.38-22.84-3.38
		c-15.79,0-36.85,9.21-36.85,27.64c0,19.3,23.25,26.75,38.16,31.58l21.94,6.57c46.05,13.6,81.58,36.85,81.58,90.36
		c0,32.89-7.89,66.67-34.21,89.04c-25.88,21.93-60.54,31.15-93.87,31.15c-41.5,0-82.14-13.93-115.83-37.43
		c-0.24-0.17-0.31-0.48-0.18-0.74l36.61-68.85c21.5,18.85,46.93,34.21,76.32,34.21c20.19,0,41.67-10.09,41.67-33.33
		c0-24.13-33.78-32.46-52.19-37.73c-53.95-15.35-89.49-29.39-89.49-93.43c0-67.12,47.81-110.98,114.05-110.98
		c33.16,0,73.7,10.42,103.05,26.93c0.26,0.15,0.36,0.48,0.22,0.75L461.29,434.29z"/>
	<path class="st3" d="M583.12,526.23L583.12,526.23c0.2,0,0.37-0.1,0.48-0.25c18.39-27,40.72-36.16,71.77-36.16
		c60.53,0,84.65,38.16,84.65,93.43v91.52c0,26.25-21.28,47.53-47.53,47.53h-31.74c-0.32,0-0.57-0.25-0.57-0.57V612.64
		c0-21.5,3.51-59.22-35.97-59.22c-32.46,0-41.67,24.12-41.67,52.2v69.15c0,26.25-21.27,47.53-47.52,47.53h-31.74
		c-0.32,0-0.57-0.25-0.57-0.57V497.85c0-0.31,0.25-0.57,0.57-0.57h78.69c0.32,0,0.57,0.26,0.57,0.57v27.82
		C582.54,525.98,582.8,526.23,583.12,526.23"/>
	<path class="st3" d="M969.95,722.3h-31.74c-0.31,0-0.57-0.25-0.57-0.57v-23.86c0-0.32-0.25-0.57-0.57-0.57
		c-0.19,0-0.37,0.1-0.47,0.26c-14.09,22.19-41.61,32.2-67.82,32.2c-66.67,0-113.61-55.71-113.61-120.19
		c0-64.48,46.05-119.75,112.73-119.75c25.37,0,52.01,9.28,68.75,28.24c0.35,0.39,1,0.15,1-0.37v-19.84c0-0.31,0.26-0.57,0.57-0.57
		h78.7c0.32,0,0.57,0.26,0.57,0.57v176.93C1017.48,701.03,996.2,722.3,969.95,722.3 M837.64,610.01c0,28.51,18.86,50.45,51.32,50.45
		c32.46,0,51.33-21.94,51.33-50.45c0-27.63-18.86-50.88-51.33-50.88C856.5,559.13,837.64,582.38,837.64,610.01"/>
	<path class="st3" d="M1122.3,522.72L1122.3,522.72c0.19,0,0.37-0.1,0.48-0.25c14.51-22.2,41.6-32.65,67.82-32.65
		c67.11,0,113.61,56.15,113.61,120.63c0,64.92-46.05,119.31-112.73,119.31c-25.82,0-52.51-9.17-69.62-28.8
		c-0.05-0.06-0.13-0.03-0.13,0.04v68.67c0,26.25-21.28,47.53-47.53,47.53h-32.3V497.28h79.83v24.87
		C1121.73,522.47,1121.98,522.72,1122.3,522.72 M1119.1,610.01c0,28.51,18.86,50.45,51.33,50.45c32.46,0,51.32-21.94,51.32-50.45
		c0-27.63-18.86-50.88-51.32-50.88C1137.96,559.13,1119.1,582.38,1119.1,610.01"/>
	<path class="st3" d="M1399.52,522.72L1399.52,522.72c0.2,0,0.37-0.1,0.48-0.25c14.52-22.2,41.6-32.65,67.82-32.65
		c67.11,0,113.61,56.15,113.61,120.63c0,64.92-46.06,119.31-112.73,119.31c-25.39,0-51.61-8.86-68.76-27.82
		c-0.34-0.39-0.99-0.15-0.99,0.37v67.37c0,26.25-21.28,47.53-47.53,47.53h-31.74c-0.32,0-0.57-0.25-0.57-0.57V497.85
		c0-0.31,0.25-0.57,0.57-0.57h78.69c0.32,0,0.57,0.26,0.57,0.57v24.31C1398.95,522.47,1399.2,522.72,1399.52,522.72 M1396.32,610.01
		c0,28.51,18.85,50.45,51.32,50.45c32.46,0,51.33-21.94,51.33-50.45c0-27.63-18.87-50.88-51.33-50.88
		C1415.18,559.13,1396.32,582.38,1396.32,610.01"/>
	<path class="st3" d="M1674.84,391.57l-54.1,207.77h44.98c21.77,0,40.78-14.73,46.22-35.8l44.86-171.97H1674.84z"/>
	<path class="st4" d="M1647.73,628.73c27.87,0,50.51,22.63,50.51,50.51c0,27.87-22.63,50.51-50.51,50.51
		c-27.88,0-50.51-22.64-50.51-50.51C1597.21,651.36,1619.85,628.73,1647.73,628.73z"/>
	<polygon class="st3" points="1622.94,395.75 1623.04,395.75 1629.31,413.22 1632.09,413.22 1638.36,395.75 1638.48,395.75 
		1638.48,413.22 1643.19,413.22 1643.19,391.57 1635.58,391.57 1630.7,404.38 1625.83,391.57 1618.22,391.57 1618.22,413.22 
		1622.94,413.22 	"/>
	<polygon class="st3" points="1603.81,413.22 1609,413.22 1609,395.75 1615.59,395.75 1615.59,391.57 1597.21,391.57 
		1597.21,395.75 1603.81,395.75 	"/>
</g>
</svg>
